<svg width="334" height="342" viewBox="0 0 334 342" fill="none" xmlns="http://www.w3.org/2000/svg">
<path d="M73.8219 341.177C114.489 341.177 147.455 308.21 147.455 267.543C147.455 226.876 114.489 193.91 73.8219 193.91C33.1553 193.91 0.188477 226.876 0.188477 267.543C0.188477 308.21 33.1553 341.177 73.8219 341.177Z" fill="#FF8080"/>
<path d="M260.063 341.177C300.729 341.177 333.696 308.21 333.696 267.543C333.696 226.876 300.729 193.91 260.063 193.91C219.396 193.91 186.429 226.876 186.429 267.543C186.429 308.21 219.396 341.177 260.063 341.177Z" fill="#FFD913"/>
<path d="M73.8219 147.874C114.489 147.874 147.455 114.907 147.455 74.2406C147.455 33.574 114.489 0.607178 73.8219 0.607178C33.1553 0.607178 0.188477 33.574 0.188477 74.2406C0.188477 114.907 33.1553 147.874 73.8219 147.874Z" fill="#36EC7F"/>
<path d="M260.063 147.874C300.729 147.874 333.696 114.907 333.696 74.2406C333.696 33.574 300.729 0.607178 260.063 0.607178C219.396 0.607178 186.429 33.574 186.429 74.2406C186.429 114.907 219.396 147.874 260.063 147.874Z" fill="#7AF8D9"/>
</svg>
