<svg width="360" height="360" viewBox="0 0 360 360" fill="none" xmlns="http://www.w3.org/2000/svg">
<path d="M214.751 254.705C225.421 247.507 235.351 241.994 243.562 239.642C245.68 226.901 253.403 199.829 269.513 167.35C277.752 150.74 288.184 132.715 301.182 114.47C320.666 87.1202 314.85 58.9779 293.68 37.4411C283.972 27.5654 271.036 19.0787 255.83 12.6942C244.96 8.13056 232.931 4.64108 220.093 2.48625C210.697 0.909269 200.868 0.0471082 190.743 0.00187616C180.484 -0.0439506 169.922 0.748774 159.198 2.48625C150.586 3.88157 141.87 5.88619 133.123 8.55511C124.759 11.1075 116.752 14.1847 109.114 17.7343C99.8584 22.0357 91.1438 27.0309 82.9889 32.6268C75.172 37.9907 67.8694 43.9066 61.0974 50.2925C54.2123 56.785 47.8757 63.7633 42.1048 71.1412C37.4806 77.0533 33.2195 83.222 29.3305 89.603C23.9758 98.389 19.3264 107.577 15.4054 117.053C10.5982 128.67 6.88596 140.718 4.31125 152.985C1.92844 164.336 0.519897 175.875 0.119293 187.431C-0.299927 199.525 0.384705 211.638 2.21188 223.577C3.82764 234.134 6.33673 244.555 9.76593 254.705C10.7889 257.733 11.8937 260.737 13.0811 263.714C25.0621 293.745 38.3101 312.336 51.494 323.326C80.5802 347.572 109.354 334.822 123.52 326.3C141.663 315.385 181.744 276.975 214.751 254.705Z" fill="#FFD913"/>
<g style="mix-blend-mode:multiply">
<path d="M223.295 3.05455C222.234 2.8559 221.166 2.6664 220.093 2.48624C219.148 2.32774 218.2 2.17647 217.247 2.03251C217.177 2.46936 217.207 2.92884 217.352 3.37848C226.967 33.0555 226.196 72.6773 221.165 110.439C216.171 147.926 207.037 183.18 200.117 204.274C175.329 216.395 137.065 232.898 100.483 244.151C81.7176 249.924 63.4908 254.286 47.802 255.991C31.9863 257.71 19.2819 256.664 11.1557 252.175C10.4256 251.772 9.59709 251.719 8.86328 251.962C9.15664 252.878 9.45742 253.793 9.76564 254.705C10.2042 256.003 10.6578 257.297 11.1264 258.586C20.715 262.757 33.8057 263.323 48.423 261.734C64.6189 259.974 83.233 255.501 102.173 249.674C140.065 238.018 179.647 220.823 204.543 208.533C205.885 207.871 206.485 206.3 205.967 204.925C212.936 183.417 221.92 148.407 226.877 111.204C231.858 73.8108 232.827 33.8096 223.295 3.05455Z" fill="#FFD913"/>
<path d="M258.927 14.0377C257.905 13.5801 256.873 13.1322 255.829 12.6942C254.947 12.3238 254.058 11.9606 253.16 11.6045C252.974 12.0635 252.902 12.5768 252.977 13.103C266.334 106.751 239.118 189.802 223.315 220.882C223.1 220.966 222.891 221.077 222.694 221.216C202.022 235.833 167.392 256.83 130.806 272.237C112.517 279.939 93.8083 286.215 76.1588 289.615C58.4838 293.021 42.0556 293.506 28.2275 289.808C27.2779 289.554 26.3126 289.807 25.6167 290.4C26.6819 292.309 27.7529 294.147 28.8288 295.915C43.3282 299.333 59.9441 298.622 77.246 295.289C95.409 291.789 114.514 285.364 133.037 277.563C169.641 262.149 204.246 241.246 225.268 226.464C226.268 226.429 227.221 225.871 227.72 224.919C243.76 194.269 272.092 109.769 258.927 14.0377Z" fill="#FFD913"/>
<path d="M296.942 40.9511C295.9 39.763 294.812 38.5926 293.68 37.4411C293.01 36.7596 292.324 36.0847 291.624 35.4167C291.033 36.0208 290.711 36.8788 290.819 37.7845C293.523 60.4172 290.148 86.5107 284.743 110.062C279.345 133.582 271.978 154.339 266.867 166.205C266.256 167.625 266.87 169.267 268.239 169.942C268.658 169.082 269.082 168.218 269.512 167.35C272.716 160.891 276.252 154.218 280.141 147.401C283.681 136.931 287.326 124.57 290.358 111.358C295.533 88.8093 298.971 63.576 296.942 40.9511Z" fill="#FFD913"/>
<path d="M175.046 285.19C188.223 274.296 202.014 263.299 214.751 254.705C215.555 254.163 216.355 253.63 217.151 253.107C217.122 253.064 217.092 253.021 217.061 252.979C216.11 251.7 214.305 251.436 213.029 252.389C193.118 267.271 161.099 288.541 129.81 303.968C114.159 311.684 98.7989 317.885 85.2912 321.12C71.6733 324.382 60.4753 324.498 52.7548 320.729C51.5536 320.142 50.1453 320.469 49.3122 321.438C50.0394 322.091 50.7667 322.72 51.4937 323.326C53.9148 325.344 56.3338 327.106 58.7423 328.635C66.8869 330.107 76.4592 329.176 86.6301 326.739C100.722 323.364 116.513 316.962 132.353 309.152C146.863 301.998 161.505 293.616 175.046 285.19Z" fill="#FFD913"/>
<path d="M2.78041 227.074C11.7984 231.159 24.2145 232.093 38.1042 231.134C53.123 230.097 70.3438 226.805 87.845 222.363C122.856 213.477 159.343 199.895 182.27 190.088L183.598 189.52L183.939 188.113C188.771 168.161 195.039 134.857 198.174 99.6467C201.272 64.8539 201.344 27.8631 193.743 0.0392674C192.746 0.0188536 191.746 0.00635679 190.743 0.00187616C189.785 -0.00240348 188.824 0.000630047 187.861 0.0110632C187.862 0.266442 187.897 0.525933 187.969 0.783751C195.505 27.6498 195.548 64.1619 192.434 99.133C189.4 133.211 183.401 165.499 178.678 185.341C155.88 195.016 120.411 208.139 86.431 216.763C69.1028 221.161 52.2503 224.366 37.7082 225.37C23.054 226.383 11.2149 225.12 3.56804 221.028C3.00371 220.726 2.38418 220.632 1.79635 220.718C1.92752 221.672 2.06594 222.625 2.21161 223.577C2.39028 224.744 2.57987 225.91 2.78041 227.074Z" fill="#FFD913"/>
<path d="M0.240027 184.545C0.192715 185.507 0.152362 186.469 0.119007 187.431C0.0804314 188.544 0.0512159 189.657 0.0313603 190.769C2.5448 192.106 5.77897 192.915 9.35736 193.402C13.8468 194.012 19.2684 194.16 25.3245 193.96C37.4441 193.56 52.4295 191.751 68.2313 189.208C99.853 184.12 135.068 176.04 157.85 170.147L159.539 169.71L159.936 168.008C166.178 141.254 175.291 70.8348 162.047 2.04619C161.098 2.1855 160.149 2.33215 159.198 2.48624C158.252 2.63946 157.305 2.80004 156.357 2.96803C156.361 2.99018 156.365 3.01236 156.369 3.03454C169.176 69.4369 160.807 137.573 154.713 164.991C132.015 170.811 97.9354 178.578 67.3183 183.504C51.6139 186.031 36.9015 187.797 25.1347 188.186C19.2476 188.381 14.1789 188.227 10.1313 187.677C5.99645 187.115 3.29385 186.184 1.82302 185.102C1.3439 184.75 0.792229 184.568 0.240027 184.545Z" fill="#FFD913"/>
<path d="M4.92445 150.162C4.71325 151.101 4.50874 152.042 4.31096 152.985C4.0957 154.01 3.88838 155.037 3.68904 156.066C4.34882 156.439 5.06069 156.729 5.76626 156.961C7.02053 157.373 8.48329 157.678 10.0837 157.906C13.2849 158.36 17.3174 158.541 21.9124 158.521C31.1185 158.48 42.9285 157.627 55.5871 156.34C80.9232 153.763 109.936 149.42 128.923 146.204L131.209 145.817L131.321 143.495C132.106 127.183 132.076 101.312 129.43 76.6191C128.108 64.2734 126.124 52.1521 123.234 41.6368C120.457 31.5333 116.774 22.6477 111.832 16.4981C110.921 16.9035 110.015 17.3156 109.114 17.7343C108.241 18.14 107.372 18.552 106.509 18.97C106.614 19.192 106.749 19.4041 106.915 19.6004C111.314 24.8104 114.883 33.0007 117.679 43.1716C120.457 53.2814 122.398 65.0696 123.701 77.2362C126.186 100.428 126.331 124.739 125.669 140.893C106.769 144.05 79.1763 148.134 55.0057 150.592C42.4122 151.872 30.8169 152.704 21.887 152.744C17.414 152.763 13.6958 152.584 10.8914 152.185C9.48906 151.986 8.38531 151.742 7.56283 151.472C6.70246 151.188 6.35055 150.941 6.26151 150.859C5.87103 150.498 5.40807 150.267 4.92445 150.162Z" fill="#FFD913"/>
<path d="M16.6269 114.164C16.2121 115.124 15.8049 116.087 15.4051 117.053C15.037 117.942 14.6753 118.835 14.32 119.729C14.6548 119.866 15.0212 119.941 15.405 119.941H100.395L85.8304 32.1526C85.7605 31.7313 85.603 31.3466 85.3796 31.014C84.5773 31.5459 83.7803 32.0835 82.9886 32.6268C82.1098 33.2298 81.2374 33.8399 80.3715 34.4568L93.5958 114.164H16.6269Z" fill="#FFD913"/>
<path d="M31.1255 86.7143C30.5185 87.6722 29.9201 88.6351 29.3302 89.603C28.8293 90.4249 28.3345 91.2503 27.846 92.0792C28.2794 92.3409 28.7872 92.4914 29.3301 92.4914H64.177C65.7682 92.4914 67.058 91.1982 67.058 89.6028C67.058 89.0666 66.9123 88.5645 66.6584 88.1342L63.9707 50.0883C63.9225 49.4058 63.6416 48.7956 63.2112 48.33C62.5008 48.9791 61.7961 49.6333 61.0971 50.2925C60.1859 51.1517 59.2845 52.0193 58.3926 52.8953L60.7816 86.7143H31.1255Z" fill="#FFD913"/>
</g>
<path d="M60.7785 93.0311L39.1861 74.971C40.142 73.6831 41.1147 72.4066 42.104 71.1418C43.091 69.8799 44.0946 68.6297 45.1146 67.3916L45.1799 67.4451L66.9303 85.6374C66.9304 85.6375 66.9301 85.6373 66.9303 85.6374C66.9842 85.6825 67.0376 85.7286 67.0891 85.7756C67.1445 85.818 67.1991 85.8617 67.2531 85.9069L246.884 236.152L352.738 351.933C354.53 353.893 354.398 356.939 352.443 358.735C350.488 360.532 347.451 360.399 345.659 358.439L240.239 243.133L238.272 241.488C238.271 241.488 238.272 241.487 238.272 241.488L61.1007 93.3005C61.0467 93.2554 60.994 93.2093 60.9425 93.1624C60.8872 93.12 60.8325 93.0762 60.7785 93.0311Z" fill="#FFD913"/>
<g style="mix-blend-mode:multiply">
<path fill-rule="evenodd" clip-rule="evenodd" d="M39.1863 74.971L60.7784 93.0309C60.8324 93.076 60.8871 93.1198 60.9425 93.1622C60.9939 93.2091 61.0466 93.2552 61.1006 93.3003L238.271 241.487C240.102 240.746 241.869 240.127 243.562 239.642C243.825 238.061 244.174 236.259 244.615 234.254L67.2531 85.9067C67.1991 85.8615 67.1444 85.8178 67.089 85.7754C67.0376 85.7284 66.9841 85.6823 66.9302 85.6372L45.1798 67.4449L45.1148 67.3916C44.095 68.6294 43.0916 69.8794 42.1048 71.1411C41.1153 72.4061 40.1424 73.6829 39.1863 74.971Z" fill="#FFD913"/>
</g>
</svg>
