<svg width="414" height="208" viewBox="0 0 414 208" fill="none" xmlns="http://www.w3.org/2000/svg">
<path d="M15.115 207.005C15.1136 181.79 20.079 156.822 29.7274 133.526C39.3758 110.231 53.5184 89.0636 71.3475 71.234C89.1766 53.4044 110.343 39.2614 133.638 29.6128C156.933 19.9641 181.901 14.9986 207.115 15C313.159 15 399.125 100.959 399.125 207.005" stroke="#FF8080" stroke-width="28.5864" stroke-miterlimit="10"/>
<path d="M58.4709 207.005C58.4709 167.455 74.1322 129.524 102.009 101.558C129.886 73.591 167.696 57.8796 207.12 57.8796C246.544 57.8796 284.354 73.591 312.231 101.558C340.108 129.524 355.769 167.455 355.769 207.005" stroke="#7AF8D9" stroke-width="28.5864" stroke-miterlimit="10"/>
<path d="M99.9214 207.005C99.9214 178.574 111.216 151.308 131.319 131.204C151.423 111.1 178.689 99.8062 207.12 99.8062C235.551 99.8062 262.818 111.1 282.921 131.204C303.025 151.308 314.319 178.574 314.319 207.005" stroke="#FFD913" stroke-width="28.5864" stroke-miterlimit="10"/>
</svg>
