<svg width="416" height="416" viewBox="0 0 416 416" fill="none" xmlns="http://www.w3.org/2000/svg">
<path d="M207.672 413.588C321.018 413.588 412.903 321.553 412.903 208.023C412.903 94.4917 321.018 2.45679 207.672 2.45679C94.3263 2.45679 2.44141 94.4917 2.44141 208.023C2.44141 321.553 94.3263 413.588 207.672 413.588Z" stroke="#FFD913" stroke-width="4.7644" stroke-miterlimit="10"/>
<path d="M207.672 298.143C257.363 298.143 297.646 257.795 297.646 208.023C297.646 158.25 257.363 117.902 207.672 117.902C157.981 117.902 117.698 158.25 117.698 208.023C117.698 257.795 157.981 298.143 207.672 298.143Z" stroke="#FFD913" stroke-width="4.7644" stroke-miterlimit="10"/>
<path d="M207.672 356.521C290.757 356.521 358.111 289.057 358.111 205.836C358.111 122.616 290.757 55.1519 207.672 55.1519C124.587 55.1519 57.2334 122.616 57.2334 205.836C57.2334 289.057 124.587 356.521 207.672 356.521Z" stroke="#FFD913" stroke-width="4.7644" stroke-miterlimit="10"/>
<path d="M207.672 2.45679V413.588" stroke="#FFD913" stroke-width="4.7644" stroke-miterlimit="10"/>
<path d="M412.903 208.023H2.44141" stroke="#FFD913" stroke-width="4.7644" stroke-miterlimit="10"/>
<path d="M352.8 62.6697L62.5562 353.387" stroke="#FFD913" stroke-width="4.7644" stroke-miterlimit="10"/>
<path d="M352.8 353.387L62.5562 62.6697" stroke="#FFD913" stroke-width="4.7644" stroke-miterlimit="10"/>
<path d="M392.09 117.808L23.2539 298.237" stroke="#FFD913" stroke-width="4.7644" stroke-miterlimit="10"/>
<path d="M297.739 392.742L117.605 23.3033" stroke="#FFD913" stroke-width="4.7644" stroke-miterlimit="10"/>
<path d="M401.755 274.853L13.5889 141.204" stroke="#FFD913" stroke-width="4.7644" stroke-miterlimit="10"/>
<path d="M140.962 402.423L274.394 13.6225" stroke="#FFD913" stroke-width="4.7644" stroke-miterlimit="10"/>
</svg>
