<svg width="473" height="473" viewBox="0 0 473 473" fill="none" xmlns="http://www.w3.org/2000/svg">
<path d="M281.539 281.325C293.467 269.444 300.189 253.314 300.229 236.479C300.237 223.923 296.515 211.649 289.536 201.212C282.557 190.775 272.634 182.646 261.028 177.857C249.422 173.068 236.655 171.835 224.347 174.313C212.038 176.791 200.743 182.869 191.895 191.776C183.079 200.64 177.082 211.912 174.657 224.176C172.233 236.44 173.489 249.146 178.269 260.697C183.048 272.249 191.137 282.128 201.518 289.093C211.899 296.058 224.108 299.798 236.609 299.841H236.609C253.448 299.869 269.609 293.209 281.539 281.325ZM301.471 236.477L301.191 242.843C301.035 244.191 300.836 245.531 300.637 246.876C300.524 247.637 300.41 248.399 300.304 249.167C300.16 250.211 299.918 251.238 299.649 252.268C299.568 252.581 299.484 252.895 299.4 253.209C299.208 253.928 299.014 254.651 298.847 255.378C298.53 256.755 298.04 258.075 297.546 259.409C297.298 260.076 297.05 260.747 296.82 261.431C292.789 271.981 286.238 281.384 277.738 288.821C269.237 296.259 259.045 301.504 248.051 304.097C237.057 306.691 225.595 306.555 214.666 303.701C203.737 300.847 193.672 295.362 185.35 287.724C178.302 281.225 172.68 273.334 168.84 264.549C164.997 255.692 163.014 246.14 163.014 236.485L163.422 229.275C163.646 227.556 163.932 225.782 164.218 224.016C164.319 223.387 164.421 222.759 164.519 222.135C164.766 220.568 165.226 219.044 165.691 217.503C165.926 216.724 166.162 215.94 166.373 215.144C166.796 213.549 167.428 212.036 168.067 210.509C168.358 209.813 168.65 209.114 168.924 208.404C172.775 199.632 178.4 191.751 185.443 185.257C192.416 178.911 200.59 174.026 209.481 170.89C226.474 165.057 245.066 166.029 261.358 173.604C277.649 181.178 290.374 194.765 296.867 211.516C297.112 212.251 297.367 212.977 297.62 213.701C298.072 214.992 298.521 216.275 298.909 217.582C299.413 219.279 299.78 221.023 300.146 222.766C300.219 223.113 300.292 223.461 300.366 223.808C300.736 225.542 300.935 227.307 301.134 229.085C301.172 229.423 301.211 229.762 301.25 230.101L301.471 236.477Z" stroke="#7AF8D9" stroke-width="0.47644"/>
<path d="M304.645 264.672L304.645 264.673C302.849 269.162 300.669 273.488 298.128 277.602C295.541 281.719 292.559 285.575 289.225 289.115L289.223 289.117C282.329 296.574 274.029 302.594 264.799 306.83C255.57 311.066 245.593 313.434 235.445 313.799C225.296 314.165 215.176 312.519 205.666 308.957C196.155 305.395 187.444 299.987 180.032 293.045C176.222 289.427 172.771 285.449 169.728 281.167L169.727 281.166C166.649 276.872 164.05 272.253 161.978 267.392L161.977 267.39C157.742 257.643 155.557 247.129 155.557 236.502C155.557 225.875 157.742 215.361 161.977 205.614C166.219 195.941 172.363 187.22 180.044 179.97C187.463 173.048 196.175 167.658 205.681 164.107C215.186 160.557 225.299 158.917 235.44 159.28C245.581 159.644 255.55 162.005 264.777 166.227C274.004 170.45 282.308 176.451 289.212 183.887L289.213 183.888C292.546 187.423 295.525 191.276 298.106 195.391C300.65 199.505 302.834 203.83 304.634 208.32L304.634 208.32C308.234 217.266 310.04 226.833 309.948 236.476L309.948 236.481C310.047 246.135 308.245 255.714 304.645 264.672ZM308.226 236.479C308.257 218.716 301.68 201.576 289.775 188.393C277.869 175.21 261.485 166.926 243.811 165.153C226.136 163.38 208.434 168.244 194.146 178.8C179.859 189.355 170.009 204.847 166.511 222.263C163.013 239.678 166.117 257.772 175.221 273.026C184.324 288.279 198.775 299.602 215.763 304.791C232.752 309.98 251.063 308.666 267.136 301.102C283.209 293.539 295.894 280.268 302.725 263.871C306.338 255.189 308.207 245.882 308.226 236.479Z" stroke="#7AF8D9" stroke-width="0.47644"/>
<path d="M312.409 267.887L312.408 267.889C308.425 277.945 302.547 287.144 295.095 294.984L295.094 294.985C285.429 305.262 273.359 312.971 259.97 317.418C246.582 321.864 232.297 322.907 218.405 320.454C204.512 318 191.449 312.126 180.394 303.363C169.339 294.599 160.639 283.222 155.079 270.256L155.079 270.256C150.487 259.589 148.118 248.098 148.118 236.484C148.118 224.871 150.487 213.38 155.079 202.713C159.677 192.123 166.349 182.561 174.702 174.591C182.827 166.903 192.388 160.893 202.838 156.903C213.288 152.912 224.422 151.021 235.604 151.338C246.785 151.654 257.794 154.171 268.002 158.745C278.21 163.319 287.416 169.861 295.094 177.996L295.095 177.997C298.823 181.91 302.165 186.173 305.074 190.727C307.939 195.285 310.394 200.089 312.409 205.082L312.409 205.082C316.443 215.053 318.475 225.721 318.39 236.477L318.39 236.48C318.475 247.24 316.443 257.912 312.409 267.887ZM316.259 236.479C316.28 216.729 308.956 197.676 295.71 183.027C282.463 168.378 264.242 159.178 244.59 157.218C224.937 155.257 205.258 160.676 189.379 172.42C173.499 184.164 162.556 201.394 158.675 220.759C154.795 240.124 158.255 260.24 168.383 277.195C178.511 294.151 194.583 306.734 213.474 312.497C232.365 318.26 252.724 316.791 270.592 308.376C288.459 299.962 302.559 285.202 310.149 266.969C314.17 257.306 316.247 246.945 316.259 236.479Z" stroke="#7AF8D9" stroke-width="0.47644"/>
<path d="M320.138 271.078L320.137 271.08C315.716 282.138 309.203 292.239 300.953 300.829L300.953 300.829C290.329 311.966 277.106 320.29 262.471 325.055C247.836 329.82 232.247 330.877 217.103 328.13C201.958 325.384 187.733 318.92 175.704 309.318C163.674 299.717 154.217 287.279 148.181 273.121L147.962 273.214L148.181 273.121C143.241 261.538 140.694 249.076 140.694 236.484C140.694 223.892 143.241 211.43 148.181 199.848C153.135 188.328 160.34 177.912 169.371 169.212C182.764 156.42 199.66 147.903 217.909 144.747C236.158 141.59 254.933 143.936 271.845 151.486C277.326 153.953 282.552 156.953 287.448 160.442C292.298 163.916 296.825 167.819 300.977 172.104C309.223 180.694 315.74 190.79 320.172 201.842L320.173 201.843C324.634 212.841 326.884 224.609 326.796 236.477L326.796 236.48C326.87 248.338 324.607 260.094 320.138 271.078ZM324.326 236.24C324.28 214.593 316.215 193.727 301.685 177.674C287.101 161.561 267.046 151.449 245.42 149.302C223.794 147.156 202.143 153.129 184.677 166.061C167.21 178.992 155.177 197.957 150.918 219.268C146.659 240.579 150.478 262.712 161.632 281.364C172.786 300.015 190.478 313.852 211.268 320.182C232.058 326.513 254.459 324.886 274.116 315.617C293.772 306.348 309.279 290.1 317.62 270.032C322.045 259.398 324.336 247.997 324.361 236.479L324.362 236.24H324.326Z" stroke="#7AF8D9" stroke-width="0.47644"/>
<path d="M236.604 337.503L236.604 337.504C216.364 338.012 196.439 332.42 179.42 321.452C162.402 310.485 149.077 294.651 141.178 276.009L140.959 276.102L141.178 276.009C135.878 263.506 133.147 250.065 133.147 236.485C133.147 222.905 135.878 209.463 141.178 196.96C149.105 178.342 162.435 162.532 179.445 151.573C196.456 140.614 216.363 135.011 236.592 135.489C262.943 136.152 287.992 147.081 306.402 165.946C324.811 184.811 335.125 210.12 335.144 236.479L335.144 236.717H335.156C335.137 263.012 324.852 288.266 306.486 307.093C288.064 325.977 262.978 336.893 236.604 337.503ZM325.115 273.142L325.115 273.142C329.935 261.519 332.42 249.061 332.428 236.479C332.432 212.745 323.609 189.857 307.674 172.268C291.74 154.678 269.833 143.643 246.214 141.308C222.595 138.974 198.952 145.506 179.882 159.636C160.812 173.766 147.679 194.483 143.036 217.758C138.393 241.034 142.571 265.204 154.76 285.57C166.948 305.935 186.275 321.04 208.982 327.947C231.689 334.853 256.153 333.069 277.617 322.94C299.081 312.81 316.011 295.061 325.115 273.142Z" stroke="#7AF8D9" stroke-width="0.47644"/>
<path d="M134.198 278.909L134.198 278.909C125.663 258.708 123.419 236.402 127.761 214.906C132.102 193.41 142.827 173.724 158.534 158.419C173.888 143.484 193.304 133.406 214.354 129.442C235.404 125.479 257.155 127.807 276.889 136.136C296.624 144.465 313.466 158.424 325.311 176.271C337.157 194.117 343.481 215.059 343.492 236.479C343.514 261.628 334.833 286.01 318.923 305.486C303.013 324.963 280.854 338.335 256.206 343.332C231.559 348.328 205.941 344.643 183.702 332.9C161.463 321.157 143.972 302.081 134.198 278.909ZM332.644 276.264L332.644 276.264C337.867 263.649 340.563 250.132 340.578 236.479C340.582 210.709 331.003 185.859 313.702 166.761C296.401 147.663 272.616 135.682 246.971 133.147C221.327 130.613 195.656 137.707 174.952 153.049C154.248 168.392 139.989 190.886 134.95 216.158C129.91 241.43 134.45 267.672 147.686 289.783C160.922 311.893 181.908 328.291 206.563 335.787C231.218 343.283 257.779 341.341 281.082 330.34C304.385 319.339 322.764 300.064 332.644 276.264Z" stroke="#7AF8D9" stroke-width="0.47644"/>
<path d="M343.266 192.297C348.924 206.153 351.828 220.978 351.818 235.942L351.778 235.902L351.781 236.48C351.868 251.639 348.963 266.667 343.233 280.702C337.503 294.737 329.06 307.503 318.388 318.271L318.387 318.272C307.719 329.163 295.039 337.88 281.05 343.941C259.753 353.075 236.224 355.675 213.447 351.412C190.67 347.149 169.674 336.216 153.122 319.999C142.062 309.091 133.28 296.094 127.287 281.763C121.293 267.432 118.206 252.053 118.206 236.519C118.206 220.986 121.293 205.607 127.287 191.276C133.28 176.945 142.062 163.948 153.122 153.04C169.683 136.827 190.687 125.898 213.469 121.639C236.251 117.381 259.785 119.985 281.085 129.121C295.066 135.17 307.745 143.867 318.423 154.732L318.424 154.733C329.094 165.499 337.536 178.264 343.266 192.297ZM340.209 279.397L340.209 279.397C345.843 265.789 348.745 251.206 348.75 236.478C348.74 208.708 338.402 181.935 319.748 161.363C301.093 140.792 275.455 127.893 247.818 125.175C220.181 122.457 192.521 130.113 170.216 146.656C147.911 163.2 132.556 187.446 127.135 214.682C121.715 241.918 126.617 270.197 140.888 294.019C155.16 317.842 177.781 335.505 204.352 343.576C230.924 351.646 259.547 349.546 284.657 337.684C309.766 325.823 329.567 305.047 340.209 279.397Z" stroke="#7AF8D9" stroke-width="0.47644"/>
<path d="M360.071 236.328L360.035 236.352L360.036 236.48C360.1 252.709 356.965 268.792 350.81 283.809C344.655 298.827 335.601 312.484 324.164 323.999L324.164 324C306.886 341.561 284.796 353.613 260.679 358.636C236.562 363.66 211.497 361.43 188.645 352.229L188.645 352.229C173.346 346.088 159.423 336.965 147.685 325.389C135.924 313.758 126.588 299.909 120.215 284.644C113.843 269.379 110.562 253.002 110.562 236.461C110.562 219.92 113.843 203.543 120.215 188.278C126.588 173.013 135.924 159.164 147.685 147.533L147.685 147.533C165.191 130.205 187.437 118.451 211.616 113.753C235.795 109.056 260.824 111.625 283.544 121.138C306.264 130.65 325.658 146.68 339.278 167.203C352.874 187.691 360.108 211.741 360.071 236.328ZM356.97 236.717H357.005L357.005 236.478C356.99 206.674 345.891 177.94 325.867 155.865C305.843 133.789 278.325 119.949 248.663 117.035C219.001 114.122 189.316 122.344 165.38 140.102C141.443 157.86 124.966 183.885 119.152 213.117C113.339 242.349 118.604 272.698 133.924 298.264C149.244 323.829 173.525 342.784 202.044 351.441C230.563 360.099 261.283 357.841 288.23 345.107C315.177 332.373 336.426 310.073 347.844 282.542L347.844 282.542C353.844 268.007 356.944 252.44 356.97 236.717Z" stroke="#7AF8D9" stroke-width="0.47644"/>
<path d="M329.975 329.787L329.975 329.787C311.548 348.429 288.013 361.197 262.339 366.481C236.665 371.765 210.002 369.328 185.711 359.478C169.484 352.908 154.722 343.181 142.284 330.861L142.283 330.86C129.74 318.585 119.757 303.944 112.911 287.785C106.064 271.626 102.49 254.269 102.396 236.72C102.302 219.17 105.689 201.776 112.362 185.544C119.035 169.313 128.86 154.566 141.27 142.157C153.68 129.747 168.428 119.923 184.66 113.251C200.892 106.579 218.286 103.193 235.836 103.288C253.385 103.384 270.742 106.958 286.9 113.806C303.059 120.653 317.699 130.638 329.974 143.181L329.975 143.182C342.183 155.451 351.852 170.006 358.431 186.014C365.009 202.022 368.367 219.171 368.314 236.478V236.479C368.366 253.788 365.008 270.938 358.429 286.948C351.851 302.958 342.182 317.515 329.975 329.787ZM355.49 285.676L355.277 285.587L355.49 285.676C361.95 270.078 365.277 253.361 365.283 236.479C365.282 204.59 353.421 173.841 332.006 150.213C310.591 126.585 281.153 111.766 249.418 108.638C217.683 105.511 185.92 114.299 160.304 133.292C134.689 152.286 117.054 180.128 110.829 211.403C104.604 242.679 110.233 275.151 126.623 302.506C143.012 329.861 168.99 350.142 199.504 359.405C230.018 368.668 262.886 366.251 291.716 352.624C320.547 338.997 343.278 315.134 355.49 285.676Z" stroke="#7AF8D9" stroke-width="0.47644"/>
<path d="M136.871 336.216L136.871 336.216C122.082 321.542 110.738 303.766 103.659 284.173C96.5792 264.579 93.9414 243.658 95.9358 222.92C97.9301 202.183 104.507 182.147 115.19 164.262C125.874 146.377 140.398 131.088 157.712 119.502C175.026 107.916 194.698 100.321 215.306 97.2664C235.914 94.2118 256.944 95.7739 276.874 101.84C296.805 107.906 315.139 118.324 330.551 132.341C345.964 146.358 358.069 163.624 365.993 182.891C372.949 199.897 376.494 218.104 376.428 236.478V236.479C376.454 264.244 368.253 291.394 352.86 314.501C337.467 337.608 315.572 355.635 289.94 366.307C264.308 376.979 236.088 379.816 208.845 374.46C181.602 369.105 156.556 355.797 136.871 336.216ZM373.467 236.717H373.514L373.514 236.478C373.494 202.555 360.859 169.851 338.066 144.726C315.272 119.601 283.949 103.851 250.187 100.539C216.426 97.2269 182.639 106.589 155.397 126.806C128.155 147.022 109.405 176.647 102.794 209.92C96.1824 243.193 102.182 277.736 119.625 306.832C137.069 335.927 164.709 357.495 197.172 367.342C229.635 377.189 264.6 374.611 295.268 360.109C325.936 345.607 350.114 320.218 363.101 288.879L363.102 288.879C369.926 272.333 373.447 254.613 373.467 236.717Z" stroke="#7AF8D9" stroke-width="0.47644"/>
<path d="M384.577 236.478C384.47 273.197 370.709 308.563 345.972 335.699C321.235 362.834 287.29 379.799 250.738 383.295C214.186 386.79 177.64 376.565 148.208 354.61C118.777 332.654 98.5636 300.536 91.4995 264.503C84.4354 228.47 91.0256 191.098 109.988 159.655C128.951 128.211 158.931 104.945 194.097 94.38C229.263 83.8152 267.102 86.7075 300.254 102.494C333.405 118.281 359.501 145.834 373.464 179.794C380.847 197.778 384.623 217.038 384.577 236.478ZM381.85 236.479C381.844 200.454 368.439 165.72 344.244 139.03C320.048 112.341 286.79 95.6048 250.939 92.0769C215.087 88.549 179.205 98.4816 150.271 119.943C121.337 141.404 101.419 172.859 94.3915 208.192C87.3637 243.524 93.7284 280.207 112.248 311.107C130.767 342.007 160.117 364.914 194.589 375.374C229.062 385.834 266.193 383.099 298.76 367.7C331.328 352.301 357.004 325.34 370.795 292.059C378.094 274.438 381.851 255.552 381.85 236.479Z" stroke="#7AF8D9" stroke-width="0.47644"/>
<path d="M375.1 308.054C357.247 342.393 327.261 368.864 290.973 382.321C254.685 395.777 214.689 395.257 178.764 380.86C142.838 366.463 113.551 339.22 96.5983 304.428C79.6452 269.636 76.2378 229.783 87.0387 192.618C97.8397 155.453 122.077 123.633 155.037 103.347C187.997 83.0612 227.324 75.7587 265.369 82.8597C303.415 89.9607 337.459 110.958 360.883 141.768C384.306 172.577 395.433 210.997 392.101 249.556C390.322 269.981 384.545 289.857 375.1 308.054ZM335.504 353.758L335.35 353.576L335.504 353.758C350.921 340.748 363.629 324.834 372.906 306.92C390.395 273.097 394.68 233.977 384.927 197.17C375.174 160.362 352.08 128.498 320.136 107.773C288.193 87.0479 249.683 78.944 212.096 85.0371C174.509 91.1301 140.532 110.985 116.771 140.739C93.0109 170.494 81.1661 208.023 83.5402 246.026C85.9144 284.03 102.338 319.792 129.617 346.358C156.896 372.925 193.08 388.396 231.133 389.764C269.186 391.131 306.388 378.298 335.504 353.758Z" stroke="#7AF8D9" stroke-width="0.47644"/>
<path d="M354.819 350.076C326.564 379.39 288.415 397.148 247.793 399.895C207.171 402.642 166.98 390.182 135.035 364.939C103.09 339.696 81.675 303.474 74.9555 263.318C68.236 223.161 76.6919 181.941 98.6788 147.674C120.666 113.406 154.612 88.5407 193.915 77.9136C233.219 67.2864 275.07 71.6572 311.329 90.1758C347.589 108.694 375.665 140.037 390.097 178.108C404.529 216.179 404.286 258.257 389.414 296.159C381.531 316.226 369.776 334.547 354.819 350.076ZM301.438 384.763L301.342 384.545L301.438 384.763C320.923 376.223 338.538 363.935 353.283 348.6C381.097 319.633 397.145 281.357 398.304 241.215C399.463 201.073 385.651 161.935 359.554 131.411C333.457 100.888 296.941 81.1611 257.107 76.0676C217.272 70.974 176.967 80.8777 144.03 103.852C111.092 126.827 87.877 161.231 78.8982 200.373C69.9194 239.515 75.8191 280.598 95.45 315.631C115.081 350.665 147.04 377.145 185.112 389.922C223.184 402.699 264.647 400.861 301.438 384.763Z" stroke="#7AF8D9" stroke-width="0.47644"/>
<path d="M384.418 324.498C362.52 361.123 327.784 388.294 286.964 400.73C246.145 413.165 202.159 409.974 163.561 391.778C124.963 373.582 94.5121 341.682 78.1293 302.28C61.7465 262.879 60.6031 218.792 74.9214 178.594C89.2397 138.397 117.996 104.96 155.599 84.7882C193.202 64.616 236.963 59.1496 278.372 69.4519C319.782 79.7543 355.88 105.089 379.646 140.53C403.413 175.97 413.15 218.983 406.963 261.204C403.675 283.577 396.014 305.084 384.418 324.498ZM382.939 323.616C404.563 287.311 411.913 244.261 403.557 202.839C395.202 161.416 371.739 124.581 337.732 99.498C303.725 74.4147 261.604 62.8756 219.561 67.125C177.519 71.3744 138.559 91.1083 110.259 122.489C81.9589 153.87 66.3414 194.655 66.4437 236.912C66.546 279.169 82.3608 319.877 110.813 351.121C139.264 382.364 178.319 401.909 220.382 405.955C262.445 410.001 304.509 398.258 338.394 373.01C356.337 359.624 371.472 342.841 382.939 323.616Z" stroke="#7AF8D9" stroke-width="0.47644"/>
<path d="M401.743 305.235L401.721 305.225C418.739 264.353 419.98 218.616 405.198 176.877C390.389 135.063 360.559 100.252 321.507 79.2126C282.456 58.1732 236.975 52.4099 193.91 63.0434C150.845 73.6768 113.274 99.9469 88.5034 136.745C63.7329 173.543 53.5338 218.238 59.8894 262.139C66.245 306.04 88.701 346.008 122.89 374.27C157.08 402.533 200.558 417.069 244.871 415.053C289.184 413.037 331.162 394.612 362.644 363.361C379.319 346.804 392.573 327.128 401.651 305.454L401.743 305.235ZM402.776 305.925C385.504 347.107 353.533 380.393 313.081 399.311C272.629 418.229 226.586 421.426 183.908 408.28C141.229 395.135 104.965 366.586 82.167 328.186C59.3693 289.787 51.6678 244.281 60.5602 200.518C69.4525 156.755 94.3031 117.863 130.279 91.4057C166.256 64.9485 210.786 52.8169 255.21 57.3701C299.635 61.9233 340.778 82.8359 370.639 116.041C400.501 149.246 416.945 192.37 416.775 237.027C416.675 260.689 411.918 284.1 402.776 305.925Z" stroke="#7AF8D9" stroke-width="0.47644"/>
<path d="M236.61 424.261C340.319 424.261 424.392 340.188 424.392 236.479C424.392 132.769 340.319 48.696 236.61 48.696C132.9 48.696 48.827 132.769 48.827 236.479C48.827 340.188 132.9 424.261 236.61 424.261Z" stroke="#7AF8D9" stroke-width="0.47644" stroke-miterlimit="10"/>
</svg>
