<svg width="365" height="447" viewBox="0 0 365 447" fill="none" xmlns="http://www.w3.org/2000/svg">
<path d="M360.771 98.2581V264.043C360.771 311.503 341.964 357.02 308.486 390.579C275.009 424.139 229.603 442.992 182.259 442.992V442.992C134.923 442.979 89.53 424.121 56.0626 390.563C22.5953 357.004 3.79419 311.495 3.79419 264.043V0.259155" stroke="#FD4B01" stroke-width="6.67016" stroke-miterlimit="10"/>
<path d="M188.224 405.629C139.31 405.629 92.3997 386.151 57.8124 351.479C23.2251 316.807 3.79419 269.782 3.79419 220.748" stroke="#FD4B01" stroke-width="6.67016" stroke-miterlimit="10"/>
<path d="M188.224 368.887C139.31 368.887 92.3997 349.408 57.8124 314.736C23.2251 280.064 3.79419 233.039 3.79419 184.006" stroke="#FD4B01" stroke-width="6.67016" stroke-miterlimit="10"/>
<path d="M188.224 332.133C139.31 332.133 92.3997 312.655 57.8124 277.983C23.2251 243.311 3.79419 196.285 3.79419 147.252" stroke="#FD4B01" stroke-width="6.67016" stroke-miterlimit="10"/>
<path d="M188.224 295.332C139.31 295.332 92.3997 275.854 57.8124 241.182C23.2251 206.51 3.79419 159.485 3.79419 110.451" stroke="#FD4B01" stroke-width="6.67016" stroke-miterlimit="10"/>
<path d="M188.224 261.808C139.31 261.808 92.3997 242.33 57.8124 207.658C23.2251 172.986 3.79419 125.96 3.79419 76.9265" stroke="#FD4B01" stroke-width="6.67016" stroke-miterlimit="10"/>
<path d="M188.224 221.871C139.31 221.871 92.3997 202.393 57.8124 167.721C23.2251 133.049 3.79419 86.0234 3.79419 36.9897" stroke="#FD4B01" stroke-width="6.67016" stroke-miterlimit="10"/>
<path d="M188.224 185.129C139.31 185.129 92.3997 165.65 57.8124 130.978C23.2251 96.3064 3.79419 49.2811 3.79419 0.247437" stroke="#FD4B01" stroke-width="6.67016" stroke-miterlimit="10"/>
<path d="M302.512 344.818L219.017 296.491V393.144L302.512 344.818Z" fill="#FFD913"/>
<path d="M302.512 248.164L219.017 199.838V296.491L302.512 248.164Z" fill="#FFD913"/>
<path d="M302.512 151.499L219.017 103.173V199.838L302.512 151.499Z" fill="#FFD913"/>
<path d="M302.512 54.846L219.017 6.51941V103.173L302.512 54.846Z" fill="#FFD913"/>
</svg>
