<svg width="430" height="434" viewBox="0 0 430 434" fill="none" xmlns="http://www.w3.org/2000/svg">
<path d="M1.92203 112.208V2.30493H135.107C178.765 2.30493 214.161 26.8578 214.161 57.2565C214.161 87.5969 249.546 112.208 293.216 112.208H428.085V2.30493" stroke="#36EC7F" stroke-width="3.33508" stroke-miterlimit="10"/>
<path d="M1.92194 132.143V22.2395H135.107C178.765 22.2395 214.161 46.8508 214.161 77.1911C214.161 107.59 249.546 132.143 293.216 132.143H428.085V22.2395" stroke="#36EC7F" stroke-width="3.33508" stroke-miterlimit="10"/>
<path d="M1.92194 152.148V42.2444H135.107C178.765 42.2444 214.161 66.7972 214.161 97.196C214.161 127.595 249.546 152.148 293.216 152.148H428.085V42.2444" stroke="#36EC7F" stroke-width="3.33508" stroke-miterlimit="10"/>
<path d="M1.92194 172.141V62.2373H135.107C178.765 62.2373 214.161 86.7902 214.161 117.189C214.161 147.588 249.546 172.141 293.216 172.141H428.085V62.2373" stroke="#36EC7F" stroke-width="3.33508" stroke-miterlimit="10"/>
<path d="M1.92194 192.145V82.2419H135.107C178.765 82.2419 214.161 106.795 214.161 137.194C214.161 167.592 249.546 192.145 293.216 192.145H428.085V82.2419" stroke="#36EC7F" stroke-width="3.33508" stroke-miterlimit="10"/>
<path d="M1.92194 212.138V102.235H135.107C178.765 102.235 214.161 126.788 214.161 157.186C214.161 187.585 249.546 212.138 293.216 212.138H428.085V102.235" stroke="#36EC7F" stroke-width="3.33508" stroke-miterlimit="10"/>
<path d="M1.92194 232.143V122.24H135.107C178.765 122.24 214.161 146.793 214.161 177.191C214.161 207.59 249.546 232.143 293.216 232.143H428.085V122.24" stroke="#36EC7F" stroke-width="3.33508" stroke-miterlimit="10"/>
<path d="M1.92194 252.136V142.233H135.107C178.765 142.233 214.161 166.844 214.161 197.184C214.161 227.583 249.546 252.136 293.216 252.136H428.085V142.233" stroke="#36EC7F" stroke-width="3.33508" stroke-miterlimit="10"/>
<path d="M1.92194 272.141V162.238H135.107C178.765 162.238 214.161 186.79 214.161 217.189C214.161 247.588 249.546 272.141 293.216 272.141H428.085V162.238" stroke="#36EC7F" stroke-width="3.33508" stroke-miterlimit="10"/>
<path d="M1.92194 292.134V182.23H135.107C178.765 182.23 214.161 206.842 214.161 237.182C214.161 267.581 249.546 292.134 293.216 292.134H428.085V182.23" stroke="#36EC7F" stroke-width="3.33508" stroke-miterlimit="10"/>
<path d="M1.92194 312.138V202.235H135.107C178.765 202.235 214.161 226.788 214.161 257.187C214.161 287.585 249.546 312.138 293.216 312.138H428.085V202.235" stroke="#36EC7F" stroke-width="3.33508" stroke-miterlimit="10"/>
<path d="M1.92194 332.132V222.228H135.107C178.765 222.228 214.161 246.781 214.161 277.18C214.161 307.579 249.546 332.132 293.216 332.132H428.085V222.228" stroke="#36EC7F" stroke-width="3.33508" stroke-miterlimit="10"/>
<path d="M1.92194 352.136V242.233H135.107C178.765 242.233 214.161 266.786 214.161 297.185C214.161 327.583 249.546 352.136 293.216 352.136H428.085V242.233" stroke="#36EC7F" stroke-width="3.33508" stroke-miterlimit="10"/>
<path d="M1.92194 372.129V262.226H135.107C178.765 262.226 214.161 286.779 214.161 317.178C214.161 347.576 249.546 372.129 293.216 372.129H428.085V262.226" stroke="#36EC7F" stroke-width="3.33508" stroke-miterlimit="10"/>
<path d="M1.92194 392.134V282.231H135.107C178.765 282.231 214.161 306.784 214.161 337.182C214.161 367.581 249.546 392.134 293.216 392.134H428.085V282.231" stroke="#36EC7F" stroke-width="3.33508" stroke-miterlimit="10"/>
<path d="M1.92194 412.127V302.224H135.107C178.765 302.224 214.161 326.777 214.161 357.175C214.161 387.574 249.546 412.127 293.216 412.127H428.085V302.224" stroke="#36EC7F" stroke-width="3.33508" stroke-miterlimit="10"/>
<path d="M1.92194 432.132V322.229H135.107C178.765 322.229 214.161 346.781 214.161 377.18C214.161 407.579 249.546 432.132 293.216 432.132H428.085V322.229" stroke="#36EC7F" stroke-width="3.33508" stroke-miterlimit="10"/>
<path d="M106.38 422.615C124.449 422.615 139.097 407.979 139.097 389.924C139.097 371.87 124.449 357.234 106.38 357.234C88.311 357.234 73.6631 371.87 73.6631 389.924C73.6631 407.979 88.311 422.615 106.38 422.615Z" fill="#FFD913"/>
<path d="M329.162 81.3302C347.231 81.3302 361.879 66.6942 361.879 48.6398C361.879 30.5854 347.231 15.9495 329.162 15.9495C311.093 15.9495 296.445 30.5854 296.445 48.6398C296.445 66.6942 311.093 81.3302 329.162 81.3302Z" fill="#FFD913"/>
</svg>
