<svg width="395" height="420" viewBox="0 0 395 420" fill="none" xmlns="http://www.w3.org/2000/svg">
<path d="M197.336 3.93748L0.574585 0.310059V15.2059L197.336 11.5785L394.262 7.95105V7.56491L197.336 3.93748Z" fill="#36EC7F"/>
<path d="M197.336 19.4887L0.574585 16.1304V30.4879L197.336 27.1297L394.262 23.7948V22.8352L197.336 19.4887Z" fill="#36EC7F"/>
<path d="M197.336 35.0399L0.574585 31.9624V45.77L197.336 42.6808L394.262 39.6385V38.0939L197.336 35.0399Z" fill="#36EC7F"/>
<path d="M197.336 50.591L0.574585 47.7827V61.052L197.336 58.232L394.262 55.4705V53.3526L197.336 50.591Z" fill="#36EC7F"/>
<path d="M197.336 66.142L0.574585 63.6028V76.3339L197.336 73.783L394.262 71.314V68.6227L197.336 66.142Z" fill="#36EC7F"/>
<path d="M197.336 81.6932L0.574585 79.4231V91.6159L197.336 89.3342L394.262 87.146V83.893L197.336 81.6932Z" fill="#36EC7F"/>
<path d="M197.336 97.2441L0.574585 95.2549V106.886L197.336 104.885L394.262 102.989V99.1514L197.336 97.2441Z" fill="#36EC7F"/>
<path d="M197.336 112.795L0.574585 111.075V122.168L197.336 120.448L394.262 118.821V114.422L197.336 112.795Z" fill="#36EC7F"/>
<path d="M197.336 128.358L0.574585 126.907V137.45L197.336 135.999L394.262 134.654V129.692L197.336 128.358Z" fill="#36EC7F"/>
<path d="M197.336 143.898L0.574585 142.728V152.721L197.336 151.55L394.262 150.486V144.963L197.336 143.898Z" fill="#36EC7F"/>
<path d="M197.336 159.46L0.574585 158.559V167.991L197.336 167.101L394.262 166.317V160.233L197.336 159.46Z" fill="#36EC7F"/>
<path d="M197.336 175.011L0.574585 174.391V183.272L197.336 182.652L394.262 182.149V175.503L197.336 175.011Z" fill="#36EC7F"/>
<path d="M197.336 190.563L0.574585 190.212V198.543L197.336 198.204L394.262 197.981V190.773L197.336 190.563Z" fill="#36EC7F"/>
<path d="M197.336 206.114L0.574585 206.043V213.813L197.336 213.755L394.262 213.813V206.043L197.336 206.114Z" fill="#36EC7F"/>
<path d="M197.336 221.665L0.574585 221.875V229.095L197.336 229.306L394.262 229.645V221.314L197.336 221.665Z" fill="#36EC7F"/>
<path d="M197.336 237.216L0.574585 237.707V244.365L197.336 244.857L394.262 245.477V236.596L197.336 237.216Z" fill="#36EC7F"/>
<path d="M197.336 252.767L0.574585 253.539V259.636L197.336 260.408L394.262 261.309V251.866L197.336 252.767Z" fill="#36EC7F"/>
<path d="M197.336 268.318L0.574585 269.371V274.906L197.336 275.959L394.262 277.129V267.136L197.336 268.318Z" fill="#36EC7F"/>
<path d="M197.336 283.869L0.574585 285.203V290.176L197.336 291.51L394.262 292.961V282.418L197.336 283.869Z" fill="#36EC7F"/>
<path d="M197.336 299.42L0.574585 301.035V305.435L197.336 307.061L394.262 308.793V297.7L197.336 299.42Z" fill="#36EC7F"/>
<path d="M197.336 314.971L0.574585 316.879V320.705L197.336 322.612L394.262 324.613V312.97L197.336 314.971Z" fill="#36EC7F"/>
<path d="M197.336 330.523L0.574585 332.711V335.975L197.336 338.163L394.262 340.434V328.252L197.336 330.523Z" fill="#36EC7F"/>
<path d="M197.336 346.074L0.574585 348.555V351.246L197.336 353.715L394.262 356.266V343.523L197.336 346.074Z" fill="#36EC7F"/>
<path d="M197.336 361.625L0.574585 364.386V366.504L197.336 369.266L394.262 372.086V358.805L197.336 361.625Z" fill="#36EC7F"/>
<path d="M197.336 377.176L0.574585 380.23V381.774L197.336 384.817L394.262 387.906V374.087L197.336 377.176Z" fill="#36EC7F"/>
<path d="M197.336 392.727L0.574585 396.062V397.033L197.336 400.368L394.262 403.726V389.369L197.336 392.727Z" fill="#36EC7F"/>
<path d="M197.336 408.278L0.574585 411.905V412.303L197.336 415.919L394.262 419.558V404.651L197.336 408.278Z" fill="#36EC7F"/>
</svg>
