<svg width="360" height="360" viewBox="0 0 360 360" fill="none" xmlns="http://www.w3.org/2000/svg">
<g style="mix-blend-mode:multiply">
<path d="M139.249 254.705C128.58 247.507 118.65 241.994 110.439 239.642C108.321 226.901 100.598 199.829 84.4881 167.35C76.2491 150.74 65.8167 132.715 52.8186 114.47C33.3343 87.1202 39.1502 58.9779 60.3209 37.4411C70.0287 27.5654 82.9651 19.0787 98.1711 12.6942C109.04 8.13056 121.069 4.64108 133.908 2.48625C143.303 0.909269 153.133 0.0471082 163.258 0.00187616C173.516 -0.0439506 184.079 0.748774 194.803 2.48625C203.415 3.88157 212.131 5.88619 220.878 8.55511C229.242 11.1075 237.249 14.1847 244.887 17.7343C254.142 22.0357 262.857 27.0309 271.012 32.6268C278.829 37.9907 286.131 43.9066 292.903 50.2925C299.788 56.785 306.125 63.7633 311.896 71.1412C316.52 77.0533 320.781 83.222 324.67 89.603C330.025 98.389 334.674 107.577 338.595 117.053C343.403 128.67 347.115 140.718 349.689 152.985C352.072 164.336 353.481 175.875 353.881 187.431C354.301 199.525 353.616 211.638 351.789 223.577C350.173 234.134 347.664 244.555 344.235 254.705C343.212 257.733 342.107 260.737 340.92 263.714C328.939 293.745 315.691 312.336 302.507 323.326C273.421 347.572 244.647 334.822 230.481 326.3C212.338 315.385 172.256 276.975 139.249 254.705Z" fill="#FF8080"/>
</g>
<g style="mix-blend-mode:multiply">
<path d="M130.705 3.05455C131.766 2.8559 132.834 2.6664 133.907 2.48624C134.852 2.32774 135.8 2.17647 136.753 2.03251C136.823 2.46936 136.793 2.92884 136.648 3.37848C127.033 33.0555 127.804 72.6773 132.835 110.439C137.829 147.926 146.963 183.18 153.883 204.274C178.671 216.395 216.935 232.898 253.517 244.151C272.282 249.924 290.509 254.286 306.198 255.991C322.014 257.71 334.718 256.664 342.844 252.175C343.574 251.772 344.403 251.719 345.137 251.962C344.843 252.878 344.543 253.793 344.234 254.705C343.796 256.003 343.342 257.297 342.874 258.586C333.285 262.757 320.194 263.323 305.577 261.734C289.381 259.974 270.767 255.501 251.827 249.674C213.935 238.018 174.353 220.823 149.457 208.533C148.115 207.871 147.515 206.3 148.033 204.925C141.064 183.417 132.08 148.407 127.123 111.204C122.142 73.8108 121.173 33.8096 130.705 3.05455Z" fill="#FF8080"/>
<path d="M95.0733 14.0377C96.0949 13.5801 97.1274 13.1322 98.1707 12.6942C99.0527 12.3238 99.9424 11.9606 100.84 11.6045C101.026 12.0635 101.098 12.5768 101.023 13.103C87.6662 106.751 114.882 189.802 130.685 220.882C130.9 220.966 131.109 221.077 131.306 221.216C151.978 235.833 186.608 256.83 223.194 272.237C241.483 279.939 260.192 286.215 277.841 289.615C295.516 293.021 311.944 293.506 325.773 289.808C326.722 289.554 327.687 289.807 328.383 290.4C327.318 292.309 326.247 294.147 325.171 295.915C310.672 299.333 294.056 298.622 276.754 295.289C258.591 291.789 239.486 285.364 220.963 277.563C184.359 262.149 149.754 241.246 128.732 226.464C127.732 226.429 126.779 225.871 126.28 224.919C110.24 194.269 81.9083 109.769 95.0733 14.0377Z" fill="#FF8080"/>
<path d="M57.0578 40.9511C58.1004 39.763 59.1885 38.5926 60.3204 37.4411C60.9903 36.7596 61.6756 36.0847 62.376 35.4167C62.9671 36.0208 63.2894 36.8788 63.1811 37.7845C60.4767 60.4172 63.8523 86.5107 69.257 110.062C74.6545 133.582 82.0218 154.339 87.1327 166.205C87.7443 167.625 87.1303 169.267 85.7608 169.942C85.3423 169.082 84.9179 168.218 84.4876 167.35C81.2837 160.891 77.7481 154.218 73.859 147.401C70.3189 136.931 66.6739 124.57 63.6417 111.358C58.4672 88.8093 55.0292 63.576 57.0578 40.9511Z" fill="#FF8080"/>
<path d="M178.954 285.19C165.777 274.296 151.986 263.299 139.249 254.705C138.445 254.163 137.645 253.63 136.849 253.107C136.878 253.064 136.908 253.021 136.939 252.979C137.89 251.7 139.695 251.436 140.971 252.389C160.882 267.271 192.901 288.541 224.19 303.968C239.841 311.684 255.201 317.885 268.709 321.12C282.327 324.382 293.525 324.498 301.245 320.729C302.446 320.142 303.855 320.469 304.688 321.438C303.961 322.091 303.233 322.72 302.506 323.326C300.085 325.344 297.666 327.106 295.258 328.635C287.113 330.107 277.541 329.176 267.37 326.739C253.278 323.364 237.487 316.962 221.647 309.152C207.137 301.998 192.495 293.616 178.954 285.19Z" fill="#FF8080"/>
<path d="M351.22 227.074C342.202 231.159 329.786 232.093 315.896 231.134C300.877 230.097 283.656 226.805 266.155 222.363C231.144 213.477 194.657 199.895 171.73 190.088L170.402 189.52L170.061 188.113C165.229 168.161 158.961 134.857 155.826 99.6467C152.728 64.8539 152.656 27.8631 160.257 0.0392674C161.254 0.0188536 162.254 0.00635679 163.257 0.00187616C164.215 -0.00240348 165.176 0.000630047 166.139 0.0110632C166.138 0.266442 166.103 0.525933 166.031 0.783751C158.495 27.6498 158.452 64.1619 161.566 99.133C164.6 133.211 170.599 165.499 175.322 185.341C198.12 195.016 233.589 208.139 267.569 216.763C284.897 221.161 301.75 224.366 316.292 225.37C330.946 226.383 342.785 225.12 350.432 221.028C350.996 220.726 351.616 220.632 352.204 220.718C352.072 221.672 351.934 222.625 351.788 223.577C351.61 224.744 351.42 225.91 351.22 227.074Z" fill="#FF8080"/>
<path d="M353.76 184.545C353.807 185.507 353.848 186.469 353.881 187.431C353.92 188.544 353.949 189.657 353.969 190.769C351.455 192.106 348.221 192.915 344.643 193.402C340.153 194.012 334.732 194.16 328.676 193.96C316.556 193.56 301.57 191.751 285.769 189.208C254.147 184.12 218.932 176.04 196.15 170.147L194.461 169.71L194.064 168.008C187.822 141.254 178.709 70.8348 191.953 2.04619C192.902 2.1855 193.851 2.33215 194.802 2.48624C195.748 2.63946 196.695 2.80004 197.643 2.96803C197.639 2.99018 197.635 3.01236 197.631 3.03454C184.824 69.4369 193.193 137.573 199.287 164.991C221.985 170.811 256.065 178.578 286.682 183.504C302.386 186.031 317.099 187.797 328.865 188.186C334.752 188.381 339.821 188.227 343.869 187.677C348.004 187.115 350.706 186.184 352.177 185.102C352.656 184.75 353.208 184.568 353.76 184.545Z" fill="#FF8080"/>
<path d="M349.076 150.162C349.287 151.101 349.491 152.042 349.689 152.985C349.904 154.01 350.112 155.037 350.311 156.066C349.651 156.439 348.939 156.729 348.234 156.961C346.979 157.373 345.517 157.678 343.916 157.906C340.715 158.36 336.683 158.541 332.088 158.521C322.881 158.48 311.071 157.627 298.413 156.34C273.077 153.763 244.064 149.42 225.077 146.204L222.791 145.817L222.679 143.495C221.894 127.183 221.924 101.312 224.57 76.6191C225.892 64.2734 227.876 52.1521 230.766 41.6368C233.543 31.5333 237.226 22.6477 242.168 16.4981C243.079 16.9035 243.985 17.3156 244.886 17.7343C245.759 18.14 246.628 18.552 247.491 18.97C247.386 19.192 247.251 19.4041 247.085 19.6004C242.686 24.8104 239.117 33.0007 236.321 43.1716C233.543 53.2814 231.602 65.0696 230.299 77.2362C227.814 100.428 227.669 124.739 228.331 140.893C247.231 144.05 274.824 148.134 298.994 150.592C311.588 151.872 323.183 152.704 332.113 152.744C336.586 152.763 340.304 152.584 343.109 152.185C344.511 151.986 345.615 151.742 346.437 151.472C347.298 151.188 347.649 150.941 347.738 150.859C348.129 150.498 348.592 150.267 349.076 150.162Z" fill="#FF8080"/>
<path d="M337.373 114.164C337.788 115.124 338.195 116.087 338.595 117.053C338.963 117.942 339.325 118.835 339.68 119.729C339.345 119.866 338.979 119.941 338.595 119.941H253.605L268.17 32.1526C268.239 31.7313 268.397 31.3466 268.62 31.014C269.423 31.5459 270.22 32.0835 271.011 32.6268C271.89 33.2298 272.763 33.8399 273.628 34.4568L260.404 114.164H337.373Z" fill="#FF8080"/>
<path d="M322.875 86.7143C323.481 87.6722 324.08 88.6351 324.67 89.603C325.171 90.4249 325.665 91.2503 326.154 92.0792C325.721 92.3409 325.213 92.4914 324.67 92.4914H289.823C288.232 92.4914 286.942 91.1982 286.942 89.6028C286.942 89.0666 287.088 88.5645 287.342 88.1342L290.029 50.0883C290.077 49.4058 290.358 48.7956 290.789 48.33C291.499 48.9791 292.204 49.6333 292.903 50.2925C293.814 51.1517 294.716 52.0193 295.607 52.8953L293.218 86.7143H322.875Z" fill="#FF8080"/>
</g>
<path d="M293.221 93.0311L314.814 74.971C313.858 73.6831 312.885 72.4066 311.896 71.1418C310.909 69.8799 309.905 68.6297 308.885 67.3916L308.82 67.4451L287.07 85.6374C287.07 85.6375 287.07 85.6373 287.07 85.6374C287.016 85.6825 286.962 85.7286 286.911 85.7756C286.856 85.818 286.801 85.8617 286.747 85.9069L107.116 236.152L1.26212 351.933C-0.529825 353.893 -0.397755 356.939 1.55711 358.735C3.51197 360.532 6.54936 360.399 8.34131 358.439L113.761 243.133L115.728 241.488C115.729 241.488 115.728 241.487 115.728 241.488L292.899 93.3005C292.953 93.2554 293.006 93.2093 293.057 93.1624C293.113 93.12 293.167 93.0762 293.221 93.0311Z" fill="#FF8080"/>
<g style="mix-blend-mode:multiply">
<path fill-rule="evenodd" clip-rule="evenodd" d="M109.386 234.253L286.747 85.9069C286.801 85.8617 286.856 85.818 286.911 85.7756C286.962 85.7286 287.016 85.6825 287.07 85.6374L308.82 67.4451L308.885 67.3916C309.905 68.6297 310.909 69.8799 311.896 71.1418C312.885 72.4066 313.858 73.6831 314.814 74.971L293.221 93.0311C293.167 93.0762 293.113 93.12 293.057 93.1624C293.006 93.2093 292.953 93.2554 292.899 93.3005L115.729 241.487C113.898 240.746 112.132 240.127 110.439 239.642C110.176 238.061 109.827 236.259 109.386 234.253Z" fill="#FF8080"/>
</g>
</svg>
