<svg width="360" height="360" viewBox="0 0 360 360" fill="none" xmlns="http://www.w3.org/2000/svg">
<path d="M0 99.5954C0 178.957 61.8898 215.331 92.8347 223.598C112.64 342.64 154.724 360 185.669 360C368.863 345.12 358.961 118.196 315.638 68.5949C222.803 -49.207 0 0.393703 0 99.5954Z" fill="#36EC7F"/>
<g style="mix-blend-mode:multiply">
<path fill-rule="evenodd" clip-rule="evenodd" d="M307.854 71.6621C305.853 68.8339 301.92 68.151 299.07 70.1367L2.68295 276.621C-0.167381 278.607 -0.855667 282.51 1.14564 285.338C3.14694 288.166 7.07998 288.849 9.93031 286.863L306.317 80.3785C309.167 78.3928 309.856 74.4903 307.854 71.6621Z" fill="#36EC7F"/>
</g>
<g style="mix-blend-mode:multiply">
<path fill-rule="evenodd" clip-rule="evenodd" d="M162.195 0.394506C159.003 -0.801935 155.446 0.814577 154.249 4.00509C146.537 24.566 140.824 60.6349 136.769 96.7064C132.688 133.015 130.21 170.114 129.177 193.22L128.971 197.816L133.318 199.325C156.046 207.214 192.589 219.038 228.436 228.899C263.996 238.681 299.767 246.792 320.485 246.792C323.893 246.792 326.656 244.03 326.656 240.623C326.656 237.215 323.893 234.453 320.485 234.453C301.706 234.453 267.534 226.856 231.711 217.001C198.384 207.834 164.403 196.939 141.723 189.17C142.855 166.139 145.251 131.747 149.035 98.0843C153.106 61.8624 158.707 27.2634 165.806 8.33779C167.003 5.14728 165.386 1.59095 162.195 0.394506ZM234.747 12.3768C231.358 12.0112 228.315 14.4612 227.949 17.849L214.963 138.147L331.989 154.189C335.366 154.652 338.479 152.29 338.942 148.914C339.405 145.538 337.043 142.426 333.666 141.963L228.521 127.55L240.221 19.173C240.586 15.7852 238.136 12.7424 234.747 12.3768ZM69.2296 18.7712C65.9649 17.792 62.5244 19.6441 61.5451 22.9079C31.1103 124.33 74.3483 192.22 93.242 219.459C107.663 240.251 132.983 264.527 163.962 284.845C194.966 305.179 232.101 321.854 270.298 326.945C273.676 327.396 276.78 325.023 277.231 321.645C277.681 318.267 275.308 315.164 271.929 314.714C236.069 309.934 200.677 294.167 170.733 274.527C140.763 254.871 116.711 231.64 103.385 212.428C85.2498 186.283 44.5563 122.464 73.3674 26.4536C74.3468 23.1898 72.4942 19.7503 69.2296 18.7712Z" fill="#36EC7F"/>
</g>
</svg>
