<svg width="360" height="360" viewBox="0 0 360 360" fill="none" xmlns="http://www.w3.org/2000/svg">
<path d="M360 99.5954C360 178.957 298.11 215.331 267.165 223.598C247.36 342.64 205.276 360 174.331 360C-8.86328 345.12 1.03925 118.196 44.3619 68.5949C137.197 -49.207 360 0.393703 360 99.5954Z" fill="#FF8080"/>
<g style="mix-blend-mode:multiply">
<path fill-rule="evenodd" clip-rule="evenodd" d="M52.1456 71.6621C54.1469 68.8339 58.08 68.151 60.9303 70.1367L357.317 276.621C360.167 278.607 360.856 282.51 358.854 285.338C356.853 288.166 352.92 288.849 350.07 286.863L53.683 80.3785C50.8326 78.3928 50.1443 74.4903 52.1456 71.6621Z" fill="#FF8080"/>
</g>
<g style="mix-blend-mode:multiply">
<path fill-rule="evenodd" clip-rule="evenodd" d="M197.805 0.394506C200.997 -0.801935 204.554 0.814577 205.751 4.00509C213.463 24.566 219.176 60.6349 223.231 96.7064C227.312 133.015 229.79 170.114 230.823 193.22L231.029 197.816L226.682 199.325C203.954 207.214 167.411 219.038 131.564 228.899C96.0037 238.681 60.2333 246.792 39.515 246.792C36.1067 246.792 33.3436 244.03 33.3436 240.623C33.3436 237.215 36.1067 234.453 39.515 234.453C58.2939 234.453 92.4665 226.856 128.289 217.001C161.616 207.834 195.597 196.939 218.277 189.17C217.145 166.139 214.749 131.747 210.965 98.0843C206.894 61.8624 201.293 27.2634 194.194 8.33779C192.997 5.14728 194.614 1.59095 197.805 0.394506ZM125.253 12.3768C128.642 12.0112 131.685 14.4612 132.051 17.849L145.037 138.147L28.0105 154.189C24.6337 154.652 21.521 152.29 21.058 148.914C20.5949 145.538 22.957 142.426 26.3338 141.963L131.479 127.55L119.779 19.173C119.414 15.7852 121.864 12.7424 125.253 12.3768ZM290.77 18.7712C294.035 17.792 297.476 19.6441 298.455 22.9079C328.89 124.33 285.652 192.22 266.758 219.459C252.337 240.251 227.017 264.527 196.038 284.845C165.034 305.179 127.899 321.854 89.7021 326.945C86.3236 327.396 83.2197 325.023 82.7692 321.645C82.3187 318.267 84.6924 315.164 88.0709 314.714C123.931 309.934 159.323 294.167 189.267 274.527C219.237 254.871 243.289 231.64 256.615 212.428C274.75 186.283 315.444 122.464 286.633 26.4536C285.653 23.1898 287.506 19.7503 290.77 18.7712Z" fill="#FF8080"/>
</g>
</svg>
