<svg width="387" height="392" viewBox="0 0 387 392" fill="none" xmlns="http://www.w3.org/2000/svg">
<path d="M386.666 168.308L291.191 196.076L386.666 223.831L287.239 223.55L371.034 277.119L275.722 248.814L341.045 323.831L257.553 269.794L299.118 360.187L234.216 284.807L248.644 383.251L207.594 292.624L193.728 391.161L179.861 292.624L138.811 383.251L153.239 284.807L88.3491 360.187L129.902 269.794L46.4105 323.831L111.733 248.814L16.421 277.119L100.216 223.55L0.789001 223.831L96.2645 196.076L0.789001 168.308L100.216 168.589L16.421 115.032L111.733 143.338L46.4105 68.3201L129.902 122.357L88.3491 31.964L153.239 107.344L138.811 8.8889L179.861 99.5276L193.728 0.990479L207.594 99.5276L248.644 8.8889L234.216 107.344L299.118 31.964L257.553 122.357L341.045 68.3201L275.722 143.338L371.034 115.032L287.239 168.589L386.666 168.308Z" fill="#FF8080"/>
</svg>
