<svg width="370" height="370" viewBox="0 0 370 370" fill="none" xmlns="http://www.w3.org/2000/svg">
<path d="M352.047 205.024L266.846 206.433L340.591 249.099L258.163 227.475L317.631 288.437L244.105 245.406L284.917 320.121L225.741 258.867L244.859 341.843L204.435 266.909L200.422 351.927L181.718 268.878L154.915 349.691L159.341 264.674L111.694 335.258L138.911 254.591L73.9699 309.697L121.958 239.356L44.5399 274.928L109.748 220.137L25.5928 233.525L103.205 198.342L18.5393 188.55L102.768 175.575L23.8902 143.332L108.508 153.537L41.2564 101.249L119.963 133.881L69.3487 65.3858L136.332 118.039L106.075 38.4399L156.35 107.178L148.737 22.3792L178.58 102.124L194.122 18.4187L201.346 103.241L238.924 26.8499L222.944 110.458L279.761 47.0169L241.818 123.238L313.666 77.4617L256.509 140.635L338.062 115.925L265.995 161.337L351.196 159.514L269.521 183.812L352.047 205.024Z" stroke="#7AF8D9" stroke-width="4.7644" stroke-miterlimit="10"/>
</svg>
