<svg width="329" height="333" viewBox="0 0 329 333" fill="none" xmlns="http://www.w3.org/2000/svg">
<path d="M290.301 138.859C315.104 138.789 327.505 138.754 328.183 142.728C328.197 142.81 328.209 142.892 328.219 142.974C328.689 146.978 316.779 150.442 292.959 157.37V157.37C280.431 161.013 274.167 162.835 274.083 166.321C274.081 166.398 274.081 166.474 274.083 166.551C274.167 170.037 280.43 171.858 292.956 175.499V175.499C316.767 182.421 328.672 185.882 328.205 189.885C328.196 189.969 328.184 190.053 328.169 190.137C327.489 194.108 315.09 194.073 290.293 194.003V194.003C277.249 193.967 270.727 193.948 269.663 197.27C269.64 197.342 269.619 197.416 269.599 197.489C268.696 200.858 274.195 204.373 285.193 211.404V211.404C306.095 224.767 316.547 231.448 314.972 235.155C314.938 235.234 314.902 235.312 314.865 235.39C313.092 239.006 301.21 235.478 277.446 228.421V228.421C264.939 224.706 258.686 222.849 256.729 225.735C256.685 225.799 256.644 225.864 256.603 225.93C254.789 228.908 259.075 233.83 267.647 243.674V243.674C283.931 262.376 292.074 271.727 289.523 274.84C289.467 274.908 289.409 274.975 289.349 275.041C286.628 278.007 276.224 271.273 255.416 257.806V257.806C244.465 250.718 238.989 247.174 236.298 249.388C236.237 249.439 236.176 249.491 236.117 249.545C233.541 251.892 236.267 257.82 241.719 269.675V269.675C252.078 292.205 257.258 303.47 253.936 305.739C253.861 305.79 253.786 305.839 253.709 305.885C250.263 307.963 242.176 298.57 226.003 279.786V279.786C217.493 269.902 213.238 264.96 210.034 266.325C209.959 266.357 209.886 266.391 209.813 266.426C206.682 267.953 207.627 274.406 209.519 287.314V287.314C213.115 311.848 214.913 324.115 211.086 325.357C211 325.385 210.913 325.411 210.826 325.434C206.935 326.456 201.82 315.164 191.591 292.579V292.579C186.21 280.702 183.52 274.763 180.063 275.167C179.98 275.177 179.897 275.189 179.815 275.203C176.384 275.788 175.475 282.244 173.659 295.154V295.154C170.204 319.703 168.477 331.977 164.458 332.094C164.366 332.097 164.273 332.097 164.18 332.094C160.161 331.977 158.434 319.703 154.98 295.154V295.154C153.163 282.244 152.254 275.788 148.823 275.203C148.741 275.189 148.658 275.177 148.575 275.167C145.118 274.763 142.428 280.702 137.048 292.579V292.579C126.818 315.164 121.703 326.456 117.812 325.434C117.725 325.411 117.638 325.385 117.552 325.357C113.726 324.115 115.523 311.849 119.119 287.316V287.316C121.01 274.409 121.956 267.956 118.826 266.429C118.752 266.393 118.678 266.359 118.603 266.327C115.399 264.963 111.144 269.905 102.636 279.789V279.789C86.4679 298.571 78.3839 307.962 74.9385 305.886C74.8609 305.839 74.7846 305.79 74.7098 305.739C71.3884 303.47 76.5667 292.205 86.9233 269.676V269.676C92.3742 257.818 95.0997 251.889 92.5228 249.543C92.4641 249.489 92.4042 249.437 92.343 249.387C89.6522 247.172 84.1769 250.716 73.2263 257.803V257.803C52.4152 271.272 42.0097 278.007 39.289 275.04C39.2295 274.975 39.1718 274.909 39.1159 274.84C36.5639 271.727 44.7067 262.376 60.9925 243.673V243.673C69.5635 233.83 73.8491 228.908 72.0348 225.93C71.9946 225.864 71.9528 225.799 71.9094 225.735C69.9524 222.849 63.6989 224.706 51.1919 228.421V228.421C27.4284 235.478 15.5466 239.006 13.7737 235.39C13.7359 235.312 13.7002 235.234 13.6666 235.155C12.0916 231.448 22.5427 224.767 43.445 211.404V211.404C54.4429 204.373 59.9419 200.858 59.0393 197.489C59.0196 197.416 58.998 197.342 58.9747 197.27C57.9113 193.948 51.3892 193.967 38.3451 194.003V194.003C13.5479 194.073 1.14928 194.108 0.469037 190.137C0.454681 190.053 0.442571 189.969 0.432721 189.885C-0.0340163 185.882 11.8714 182.421 35.6823 175.499V175.499C48.208 171.858 54.4708 170.037 54.555 166.551C54.5568 166.474 54.5568 166.398 54.555 166.321C54.4712 162.835 48.207 161.013 35.6787 157.37V157.37C11.8591 150.442 -0.0506473 146.978 0.4193 142.974C0.428963 142.892 0.440773 142.81 0.454718 142.728C1.13294 138.754 13.5345 138.789 38.3375 138.859V138.859C51.3848 138.896 57.9084 138.914 58.9718 135.592C58.9951 135.52 59.0166 135.446 59.0364 135.372C59.9387 132.004 54.4405 128.489 43.4439 121.461V121.461C22.5517 108.108 12.1056 101.431 13.6769 97.7251C13.7112 97.6441 13.7478 97.564 13.7866 97.485C15.5607 93.8715 27.4403 97.3995 51.1994 104.455V104.455C63.7 108.168 69.9503 110.024 71.9077 107.141C71.9523 107.075 71.9951 107.009 72.0363 106.941C73.8476 103.964 69.5637 99.0444 60.996 89.205V89.205C44.7079 70.4994 36.5639 61.1467 39.1159 58.0334C39.1718 57.9653 39.2295 57.8987 39.289 57.8338C42.0097 54.8668 52.4153 61.6014 73.2263 75.0706V75.0706C84.1769 82.158 89.6522 85.7017 92.3429 83.4869C92.4042 83.4365 92.4641 83.3846 92.5228 83.3312C95.0997 80.9849 92.3742 75.0561 86.9234 63.1983V63.1983C76.5667 40.6687 71.3884 29.4038 74.7099 27.1348C74.7847 27.0837 74.8609 27.0347 74.9384 26.988C78.3839 24.9119 86.468 34.3029 102.636 53.085V53.085C111.145 62.969 115.399 67.911 118.604 66.5468C118.679 66.5149 118.753 66.481 118.826 66.4453C121.956 64.9184 121.011 58.4646 119.119 45.5571V45.5571C115.524 21.0197 113.726 8.75098 117.552 7.50895C117.638 7.48101 117.725 7.45553 117.812 7.43254C121.703 6.4104 126.818 17.7042 137.048 40.2917V40.2917C142.428 52.1702 145.118 58.1094 148.575 57.7053C148.658 57.6956 148.741 57.6837 148.824 57.6696C152.255 57.0838 153.163 50.6285 154.98 37.7178V37.7178C158.434 13.1707 160.161 0.897158 164.18 0.779441C164.273 0.776717 164.366 0.776717 164.459 0.779441C168.477 0.897158 170.204 13.1707 173.658 37.7178V37.7178C175.475 50.6285 176.384 57.0838 179.815 57.6696C179.897 57.6837 179.98 57.6956 180.063 57.7053C183.521 58.1094 186.21 52.1702 191.59 40.2917V40.2917C201.82 17.7042 206.935 6.4104 210.826 7.43254C210.913 7.45553 211 7.48101 211.086 7.50895C214.913 8.75098 213.115 21.0202 209.519 45.5588V45.5588C207.627 58.4674 206.681 64.9218 209.813 66.4483C209.885 66.4838 209.959 66.5173 210.033 66.549C213.238 67.9143 217.493 62.9725 226.003 53.0888V53.0888C242.176 34.3036 250.263 24.911 253.709 26.9889C253.786 27.0352 253.861 27.0837 253.935 27.1344C257.258 29.4035 252.078 40.6686 241.719 63.1987V63.1987C236.267 75.0543 233.541 80.9822 236.117 83.3288C236.176 83.3825 236.237 83.4348 236.298 83.4855C238.989 85.6997 244.465 82.1559 255.416 75.0683V75.0683C276.224 61.6009 286.628 54.8672 289.349 57.8332C289.409 57.8985 289.467 57.9655 289.523 58.0341C292.074 61.1472 283.93 70.4995 267.643 89.2039V89.2039C259.075 99.044 254.791 103.964 256.602 106.941C256.643 107.009 256.686 107.075 256.73 107.141C258.688 110.024 264.938 108.168 277.439 104.455V104.455C301.198 97.3995 313.077 93.8715 314.852 97.485C314.89 97.564 314.927 97.6441 314.961 97.7251C316.533 101.431 306.086 108.108 285.194 121.461V121.461C274.198 128.489 268.699 132.004 269.602 135.372C269.622 135.446 269.643 135.52 269.666 135.592C270.73 138.914 277.253 138.896 290.301 138.859V138.859Z" fill="#FFD913"/>
</svg>
