<svg width="585" height="585" viewBox="0 0 585 585" fill="none" xmlns="http://www.w3.org/2000/svg">
<path d="M199.912 343.67C193.621 337.385 186.031 332.551 177.675 329.508C169.319 326.465 160.398 325.286 151.538 326.053C142.678 326.821 134.093 329.516 126.385 333.951C118.676 338.386 112.031 344.453 106.914 351.727C101.797 359 98.3329 367.305 96.7636 376.058C95.1943 384.812 95.5581 393.803 97.8295 402.401C100.101 410.999 104.225 418.997 109.913 425.833C115.6 432.67 122.714 438.18 130.756 441.977L211.95 360.783C208.956 354.426 204.884 348.636 199.912 343.67V343.67Z" fill="#36EC7F"/>
<path d="M184.75 141.648C179.373 147.023 175.052 153.357 172.01 160.324L252.336 240.65C260.554 237.056 267.879 231.694 273.787 224.945C279.696 218.197 284.044 210.228 286.521 201.607C288.998 192.986 289.543 183.925 288.117 175.069C286.691 166.214 283.33 157.782 278.273 150.373C273.215 142.965 266.587 136.764 258.858 132.211C251.13 127.658 242.493 124.865 233.562 124.032C224.631 123.199 215.626 124.345 207.189 127.39C198.752 130.435 191.09 135.304 184.75 141.648V141.648Z" fill="#7AF8D9"/>
<path d="M325.114 363.611C318.823 369.909 313.987 377.507 310.945 385.873C307.903 394.239 306.728 403.169 307.505 412.037C308.281 420.905 310.989 429.495 315.438 437.205C319.887 444.915 325.97 451.558 333.26 456.667C340.549 461.776 348.869 465.228 357.634 466.78C366.399 468.332 375.398 467.946 383.999 465.651C392.599 463.355 400.593 459.205 407.419 453.491C414.245 447.778 419.738 440.639 423.512 432.577L342.409 351.474C335.982 354.483 330.129 358.59 325.114 363.611V363.611Z" fill="#FF8080"/>
<path d="M516.636 336.643C540.456 312.822 540.456 274.201 516.636 250.381C492.815 226.56 454.194 226.56 430.374 250.381C406.553 274.201 406.553 312.822 430.374 336.643C454.194 360.463 492.815 360.463 516.636 336.643Z" fill="#FFD913"/>
<path d="M111.981 123.493L-56.3513 291.825L111.981 460.157L280.313 291.825L111.981 123.493Z" stroke="white" stroke-width="4.7644" stroke-miterlimit="10"/>
<path d="M291.895 -56.4214L123.563 111.911L291.895 280.243L460.227 111.911L291.895 -56.4214Z" stroke="white" stroke-width="4.7644" stroke-miterlimit="10"/>
<path d="M291.796 303.309L123.464 471.641L291.796 639.973L460.128 471.641L291.796 303.309Z" stroke="white" stroke-width="4.7644" stroke-miterlimit="10"/>
<path d="M471.711 123.394L303.379 291.726L471.711 460.058L640.043 291.726L471.711 123.394Z" stroke="white" stroke-width="4.7644" stroke-miterlimit="10"/>
</svg>
