<svg width="499" height="498" viewBox="0 0 499 498" fill="none" xmlns="http://www.w3.org/2000/svg">
<path d="M147.914 220.401C147.91 211.508 145.961 202.723 142.204 194.663C138.447 186.602 132.973 179.46 126.165 173.738C119.357 168.016 111.381 163.852 102.794 161.537C94.2075 159.222 85.2186 158.813 76.4572 160.338C67.6958 161.863 59.3739 165.286 52.0745 170.366C44.7751 175.446 38.6749 182.061 34.2012 189.747C29.7275 197.433 26.9886 206.004 26.1763 214.86C25.3641 223.716 26.4981 232.642 29.4991 241.014H144.325C146.703 234.402 147.918 227.428 147.914 220.401V220.401Z" fill="#36EC7F"/>
<path d="M280.043 66.8288C272.441 66.8268 264.906 68.2505 257.829 71.0262V184.624C266.181 187.894 275.152 189.281 284.102 188.688C293.052 188.094 301.761 185.534 309.609 181.189C317.456 176.844 324.249 170.823 329.502 163.553C334.756 156.283 338.342 147.943 340.004 139.129C341.667 130.315 341.364 121.242 339.119 112.558C336.874 103.874 332.741 95.7914 327.015 88.8871C321.289 81.9828 314.111 76.4264 305.992 72.6136C297.873 68.8009 289.013 66.8257 280.043 66.8288V66.8288Z" fill="#7AF8D9"/>
<path d="M222.344 323.032C213.443 323.037 204.65 324.99 196.583 328.755C188.517 332.519 181.372 338.004 175.65 344.823C169.929 351.642 165.769 359.631 163.464 368.229C161.158 376.827 160.762 385.826 162.304 394.593C163.846 403.36 167.288 411.683 172.388 418.979C177.489 426.274 184.124 432.365 191.829 436.823C199.534 441.281 208.121 443.999 216.988 444.786C225.855 445.573 234.786 444.409 243.156 441.377V326.68C236.483 324.263 229.441 323.029 222.344 323.032V323.032Z" fill="#FF8080"/>
<path d="M376.84 439.389C410.527 439.389 437.836 412.08 437.836 378.393C437.836 344.705 410.527 317.396 376.84 317.396C343.153 317.396 315.844 344.705 315.844 378.393C315.844 412.08 343.153 439.389 376.84 439.389Z" fill="#FFD913"/>
<path d="M241.425 2.53546H3.3678V240.593H241.425V2.53546Z" stroke="white" stroke-width="4.7644" stroke-miterlimit="10"/>
<path d="M495.863 2.53546H257.806V240.593H495.863V2.53546Z" stroke="white" stroke-width="4.7644" stroke-miterlimit="10"/>
<path d="M241.425 256.833H3.3678V494.89H241.425V256.833Z" stroke="white" stroke-width="4.7644" stroke-miterlimit="10"/>
<path d="M495.863 256.833H257.806V494.89H495.863V256.833Z" stroke="white" stroke-width="4.7644" stroke-miterlimit="10"/>
</svg>
